<mxfile host="app.diagrams.net" modified="2024-01-28T17:46:37.544Z" agent="Mozilla/5.0 (Windows NT 10.0; Win64; x64) AppleWebKit/537.36 (KHTML, like Gecko) Chrome/120.0.0.0 Safari/537.36" etag="Vjlt83HILYyfJ2SgOKTv" version="23.0.2" type="device">
  <diagram name="Page-1" id="-fqrT9YaPXsWp4vQtAAM">
    <mxGraphModel dx="2546" dy="887" grid="0" gridSize="10" guides="1" tooltips="1" connect="1" arrows="1" fold="1" page="0" pageScale="1" pageWidth="827" pageHeight="1169" math="0" shadow="0">
      <root>
        <mxCell id="0" />
        <mxCell id="1" parent="0" />
        <mxCell id="UYImjuvei5mf2j6ICDsT-5" value="View Orders" style="swimlane;fontStyle=0;childLayout=stackLayout;horizontal=1;startSize=26;fillColor=none;horizontalStack=0;resizeParent=1;resizeParentMax=0;resizeLast=0;collapsible=1;marginBottom=0;whiteSpace=wrap;html=1;" vertex="1" parent="1">
          <mxGeometry x="280" y="390" width="160" height="140" as="geometry" />
        </mxCell>
        <mxCell id="UYImjuvei5mf2j6ICDsT-6" value="List of incomplete orders with times" style="text;strokeColor=none;fillColor=none;align=left;verticalAlign=top;spacingLeft=4;spacingRight=4;overflow=hidden;rotatable=0;points=[[0,0.5],[1,0.5]];portConstraint=eastwest;whiteSpace=wrap;html=1;" vertex="1" parent="UYImjuvei5mf2j6ICDsT-5">
          <mxGeometry y="26" width="160" height="34" as="geometry" />
        </mxCell>
        <mxCell id="UYImjuvei5mf2j6ICDsT-7" value="List of orders waiting to be confirmed" style="text;strokeColor=none;fillColor=none;align=left;verticalAlign=top;spacingLeft=4;spacingRight=4;overflow=hidden;rotatable=0;points=[[0,0.5],[1,0.5]];portConstraint=eastwest;whiteSpace=wrap;html=1;" vertex="1" parent="UYImjuvei5mf2j6ICDsT-5">
          <mxGeometry y="60" width="160" height="38" as="geometry" />
        </mxCell>
        <mxCell id="UYImjuvei5mf2j6ICDsT-8" value="List of orders waiting to be delivered" style="text;strokeColor=none;fillColor=none;align=left;verticalAlign=top;spacingLeft=4;spacingRight=4;overflow=hidden;rotatable=0;points=[[0,0.5],[1,0.5]];portConstraint=eastwest;whiteSpace=wrap;html=1;" vertex="1" parent="UYImjuvei5mf2j6ICDsT-5">
          <mxGeometry y="98" width="160" height="42" as="geometry" />
        </mxCell>
        <mxCell id="UYImjuvei5mf2j6ICDsT-14" value="View/Change Menu" style="swimlane;fontStyle=0;childLayout=stackLayout;horizontal=1;startSize=26;fillColor=none;horizontalStack=0;resizeParent=1;resizeParentMax=0;resizeLast=0;collapsible=1;marginBottom=0;whiteSpace=wrap;html=1;" vertex="1" parent="1">
          <mxGeometry x="40" y="390" width="160" height="98" as="geometry" />
        </mxCell>
        <mxCell id="UYImjuvei5mf2j6ICDsT-15" value="Categorised List of Menu Items" style="text;strokeColor=none;fillColor=none;align=left;verticalAlign=top;spacingLeft=4;spacingRight=4;overflow=hidden;rotatable=0;points=[[0,0.5],[1,0.5]];portConstraint=eastwest;whiteSpace=wrap;html=1;" vertex="1" parent="UYImjuvei5mf2j6ICDsT-14">
          <mxGeometry y="26" width="160" height="34" as="geometry" />
        </mxCell>
        <mxCell id="UYImjuvei5mf2j6ICDsT-16" value="Unavailable items (crossed through)" style="text;strokeColor=none;fillColor=none;align=left;verticalAlign=top;spacingLeft=4;spacingRight=4;overflow=hidden;rotatable=0;points=[[0,0.5],[1,0.5]];portConstraint=eastwest;whiteSpace=wrap;html=1;" vertex="1" parent="UYImjuvei5mf2j6ICDsT-14">
          <mxGeometry y="60" width="160" height="38" as="geometry" />
        </mxCell>
        <mxCell id="UYImjuvei5mf2j6ICDsT-53" style="edgeStyle=orthogonalEdgeStyle;rounded=0;orthogonalLoop=1;jettySize=auto;html=1;exitX=0;exitY=0.5;exitDx=0;exitDy=0;entryX=-0.015;entryY=0.254;entryDx=0;entryDy=0;entryPerimeter=0;" edge="1" parent="1" source="UYImjuvei5mf2j6ICDsT-18" target="UYImjuvei5mf2j6ICDsT-24">
          <mxGeometry relative="1" as="geometry">
            <Array as="points">
              <mxPoint x="160" y="315" />
              <mxPoint x="160" y="179" />
            </Array>
          </mxGeometry>
        </mxCell>
        <mxCell id="UYImjuvei5mf2j6ICDsT-18" value="Waiter Hub" style="swimlane;fontStyle=0;childLayout=stackLayout;horizontal=1;startSize=40;fillColor=none;horizontalStack=0;resizeParent=1;resizeParentMax=0;resizeLast=0;collapsible=1;marginBottom=0;whiteSpace=wrap;html=1;" vertex="1" parent="1">
          <mxGeometry x="180" y="280" width="120" height="70" as="geometry" />
        </mxCell>
        <mxCell id="UYImjuvei5mf2j6ICDsT-39" value="Log Out" style="text;html=1;align=center;verticalAlign=middle;resizable=0;points=[];autosize=1;strokeColor=none;fillColor=none;" vertex="1" parent="UYImjuvei5mf2j6ICDsT-18">
          <mxGeometry y="40" width="120" height="30" as="geometry" />
        </mxCell>
        <mxCell id="UYImjuvei5mf2j6ICDsT-43" style="edgeStyle=orthogonalEdgeStyle;rounded=0;orthogonalLoop=1;jettySize=auto;html=1;entryX=0.5;entryY=0;entryDx=0;entryDy=0;" edge="1" parent="1" source="UYImjuvei5mf2j6ICDsT-22" target="UYImjuvei5mf2j6ICDsT-18">
          <mxGeometry relative="1" as="geometry" />
        </mxCell>
        <mxCell id="UYImjuvei5mf2j6ICDsT-84" style="edgeStyle=orthogonalEdgeStyle;rounded=0;orthogonalLoop=1;jettySize=auto;html=1;exitX=0.5;exitY=0;exitDx=0;exitDy=0;entryX=0.5;entryY=1;entryDx=0;entryDy=0;" edge="1" parent="1" source="UYImjuvei5mf2j6ICDsT-22" target="UYImjuvei5mf2j6ICDsT-51">
          <mxGeometry relative="1" as="geometry" />
        </mxCell>
        <mxCell id="UYImjuvei5mf2j6ICDsT-22" value="Waiter Log In" style="swimlane;fontStyle=0;childLayout=stackLayout;horizontal=1;startSize=26;fillColor=none;horizontalStack=0;resizeParent=1;resizeParentMax=0;resizeLast=0;collapsible=1;marginBottom=0;whiteSpace=wrap;html=1;" vertex="1" parent="1">
          <mxGeometry x="180" y="120" width="120" height="120" as="geometry" />
        </mxCell>
        <mxCell id="UYImjuvei5mf2j6ICDsT-23" value="Username entry" style="text;strokeColor=none;fillColor=none;align=left;verticalAlign=top;spacingLeft=4;spacingRight=4;overflow=hidden;rotatable=0;points=[[0,0.5],[1,0.5]];portConstraint=eastwest;whiteSpace=wrap;html=1;" vertex="1" parent="UYImjuvei5mf2j6ICDsT-22">
          <mxGeometry y="26" width="120" height="26" as="geometry" />
        </mxCell>
        <mxCell id="UYImjuvei5mf2j6ICDsT-24" value="Password entry" style="text;strokeColor=none;fillColor=none;align=left;verticalAlign=top;spacingLeft=4;spacingRight=4;overflow=hidden;rotatable=0;points=[[0,0.5],[1,0.5]];portConstraint=eastwest;whiteSpace=wrap;html=1;" vertex="1" parent="UYImjuvei5mf2j6ICDsT-22">
          <mxGeometry y="52" width="120" height="26" as="geometry" />
        </mxCell>
        <mxCell id="UYImjuvei5mf2j6ICDsT-25" value="Unauthorised login error message" style="text;strokeColor=none;fillColor=none;align=left;verticalAlign=top;spacingLeft=4;spacingRight=4;overflow=hidden;rotatable=0;points=[[0,0.5],[1,0.5]];portConstraint=eastwest;whiteSpace=wrap;html=1;" vertex="1" parent="UYImjuvei5mf2j6ICDsT-22">
          <mxGeometry y="78" width="120" height="42" as="geometry" />
        </mxCell>
        <mxCell id="UYImjuvei5mf2j6ICDsT-89" style="edgeStyle=orthogonalEdgeStyle;rounded=0;orthogonalLoop=1;jettySize=auto;html=1;exitX=0.5;exitY=0;exitDx=0;exitDy=0;entryX=1;entryY=0.5;entryDx=0;entryDy=0;" edge="1" parent="1" source="UYImjuvei5mf2j6ICDsT-27" target="UYImjuvei5mf2j6ICDsT-18">
          <mxGeometry relative="1" as="geometry" />
        </mxCell>
        <mxCell id="UYImjuvei5mf2j6ICDsT-27" value="Notifications" style="swimlane;fontStyle=0;childLayout=stackLayout;horizontal=1;startSize=26;fillColor=none;horizontalStack=0;resizeParent=1;resizeParentMax=0;resizeLast=0;collapsible=1;marginBottom=0;whiteSpace=wrap;html=1;" vertex="1" parent="1">
          <mxGeometry x="490" y="390" width="150" height="100" as="geometry" />
        </mxCell>
        <mxCell id="UYImjuvei5mf2j6ICDsT-28" value="Order confirmation needed&lt;br&gt;&lt;br&gt;Order delivery needed" style="text;strokeColor=none;fillColor=none;align=left;verticalAlign=top;spacingLeft=4;spacingRight=4;overflow=hidden;rotatable=0;points=[[0,0.5],[1,0.5]];portConstraint=eastwest;whiteSpace=wrap;html=1;" vertex="1" parent="UYImjuvei5mf2j6ICDsT-27">
          <mxGeometry y="26" width="150" height="74" as="geometry" />
        </mxCell>
        <mxCell id="UYImjuvei5mf2j6ICDsT-32" value="Item" style="swimlane;fontStyle=0;childLayout=stackLayout;horizontal=1;startSize=26;fillColor=none;horizontalStack=0;resizeParent=1;resizeParentMax=0;resizeLast=0;collapsible=1;marginBottom=0;whiteSpace=wrap;html=1;" vertex="1" parent="1">
          <mxGeometry x="40" y="530" width="160" height="90" as="geometry" />
        </mxCell>
        <mxCell id="UYImjuvei5mf2j6ICDsT-33" value="Change price/availability&amp;nbsp;&lt;br&gt;&lt;br&gt;View Item Information" style="text;strokeColor=none;fillColor=none;align=left;verticalAlign=top;spacingLeft=4;spacingRight=4;overflow=hidden;rotatable=0;points=[[0,0.5],[1,0.5]];portConstraint=eastwest;whiteSpace=wrap;html=1;" vertex="1" parent="UYImjuvei5mf2j6ICDsT-32">
          <mxGeometry y="26" width="160" height="64" as="geometry" />
        </mxCell>
        <mxCell id="UYImjuvei5mf2j6ICDsT-36" value="Menu/Stock DB" style="shape=cylinder3;whiteSpace=wrap;html=1;boundedLbl=1;backgroundOutline=1;size=15;" vertex="1" parent="1">
          <mxGeometry x="90" y="660" width="60" height="80" as="geometry" />
        </mxCell>
        <mxCell id="UYImjuvei5mf2j6ICDsT-37" value="Order" style="swimlane;fontStyle=0;childLayout=stackLayout;horizontal=1;startSize=26;fillColor=none;horizontalStack=0;resizeParent=1;resizeParentMax=0;resizeLast=0;collapsible=1;marginBottom=0;whiteSpace=wrap;html=1;" vertex="1" parent="1">
          <mxGeometry x="280" y="570" width="160" height="110" as="geometry" />
        </mxCell>
        <mxCell id="UYImjuvei5mf2j6ICDsT-38" value="Confirm Order&lt;br&gt;&lt;br&gt;Confirm Delivery&lt;br&gt;&lt;br&gt;Cancel Order" style="text;strokeColor=none;fillColor=none;align=left;verticalAlign=top;spacingLeft=4;spacingRight=4;overflow=hidden;rotatable=0;points=[[0,0.5],[1,0.5]];portConstraint=eastwest;whiteSpace=wrap;html=1;" vertex="1" parent="UYImjuvei5mf2j6ICDsT-37">
          <mxGeometry y="26" width="160" height="84" as="geometry" />
        </mxCell>
        <mxCell id="UYImjuvei5mf2j6ICDsT-42" value="Users DB" style="shape=cylinder3;whiteSpace=wrap;html=1;boundedLbl=1;backgroundOutline=1;size=15;" vertex="1" parent="1">
          <mxGeometry x="380" y="140" width="60" height="80" as="geometry" />
        </mxCell>
        <mxCell id="UYImjuvei5mf2j6ICDsT-46" value="" style="endArrow=classic;html=1;rounded=0;exitX=0;exitY=0;exitDx=0;exitDy=52.5;exitPerimeter=0;entryX=1.017;entryY=0.808;entryDx=0;entryDy=0;entryPerimeter=0;" edge="1" parent="1" source="UYImjuvei5mf2j6ICDsT-42" target="UYImjuvei5mf2j6ICDsT-24">
          <mxGeometry width="50" height="50" relative="1" as="geometry">
            <mxPoint x="400" y="270" as="sourcePoint" />
            <mxPoint x="450" y="220" as="targetPoint" />
          </mxGeometry>
        </mxCell>
        <mxCell id="UYImjuvei5mf2j6ICDsT-47" value="" style="endArrow=classic;html=1;rounded=0;entryX=-0.1;entryY=0.412;entryDx=0;entryDy=0;entryPerimeter=0;exitX=1.003;exitY=0.008;exitDx=0;exitDy=0;exitPerimeter=0;" edge="1" parent="1" source="UYImjuvei5mf2j6ICDsT-24" target="UYImjuvei5mf2j6ICDsT-42">
          <mxGeometry width="50" height="50" relative="1" as="geometry">
            <mxPoint x="400" y="270" as="sourcePoint" />
            <mxPoint x="450" y="220" as="targetPoint" />
          </mxGeometry>
        </mxCell>
        <mxCell id="UYImjuvei5mf2j6ICDsT-52" style="edgeStyle=orthogonalEdgeStyle;rounded=0;orthogonalLoop=1;jettySize=auto;html=1;exitX=0.5;exitY=1;exitDx=0;exitDy=0;entryX=0.5;entryY=0;entryDx=0;entryDy=0;" edge="1" parent="1" source="UYImjuvei5mf2j6ICDsT-51" target="UYImjuvei5mf2j6ICDsT-22">
          <mxGeometry relative="1" as="geometry" />
        </mxCell>
        <mxCell id="UYImjuvei5mf2j6ICDsT-51" value="Home Page" style="rounded=0;whiteSpace=wrap;html=1;" vertex="1" parent="1">
          <mxGeometry x="180" y="40" width="120" height="40" as="geometry" />
        </mxCell>
        <mxCell id="UYImjuvei5mf2j6ICDsT-55" value="Log Out" style="text;html=1;strokeColor=none;fillColor=none;align=center;verticalAlign=middle;whiteSpace=wrap;rounded=0;" vertex="1" parent="1">
          <mxGeometry x="100" y="220" width="60" height="30" as="geometry" />
        </mxCell>
        <mxCell id="UYImjuvei5mf2j6ICDsT-57" style="edgeStyle=orthogonalEdgeStyle;rounded=0;orthogonalLoop=1;jettySize=auto;html=1;entryX=0.5;entryY=0;entryDx=0;entryDy=0;" edge="1" parent="1" source="UYImjuvei5mf2j6ICDsT-39" target="UYImjuvei5mf2j6ICDsT-14">
          <mxGeometry relative="1" as="geometry" />
        </mxCell>
        <mxCell id="UYImjuvei5mf2j6ICDsT-58" style="edgeStyle=orthogonalEdgeStyle;rounded=0;orthogonalLoop=1;jettySize=auto;html=1;entryX=0.5;entryY=0;entryDx=0;entryDy=0;" edge="1" parent="1" source="UYImjuvei5mf2j6ICDsT-39" target="UYImjuvei5mf2j6ICDsT-5">
          <mxGeometry relative="1" as="geometry" />
        </mxCell>
        <mxCell id="UYImjuvei5mf2j6ICDsT-60" value="Select Item" style="text;html=1;strokeColor=none;fillColor=none;align=center;verticalAlign=middle;whiteSpace=wrap;rounded=0;" vertex="1" parent="1">
          <mxGeometry x="150" y="490" width="60" height="30" as="geometry" />
        </mxCell>
        <mxCell id="UYImjuvei5mf2j6ICDsT-62" value="" style="endArrow=classic;html=1;rounded=0;exitX=0.622;exitY=1.041;exitDx=0;exitDy=0;exitPerimeter=0;entryX=0.855;entryY=0;entryDx=0;entryDy=4.35;entryPerimeter=0;" edge="1" parent="1" source="UYImjuvei5mf2j6ICDsT-33" target="UYImjuvei5mf2j6ICDsT-36">
          <mxGeometry width="50" height="50" relative="1" as="geometry">
            <mxPoint x="400" y="570" as="sourcePoint" />
            <mxPoint x="450" y="520" as="targetPoint" />
          </mxGeometry>
        </mxCell>
        <mxCell id="UYImjuvei5mf2j6ICDsT-63" style="edgeStyle=orthogonalEdgeStyle;rounded=0;orthogonalLoop=1;jettySize=auto;html=1;exitX=0.145;exitY=0;exitDx=0;exitDy=4.35;exitPerimeter=0;" edge="1" parent="1" source="UYImjuvei5mf2j6ICDsT-36">
          <mxGeometry relative="1" as="geometry">
            <mxPoint x="99" y="620" as="targetPoint" />
          </mxGeometry>
        </mxCell>
        <mxCell id="UYImjuvei5mf2j6ICDsT-66" value="Select order" style="text;html=1;strokeColor=none;fillColor=none;align=center;verticalAlign=middle;whiteSpace=wrap;rounded=0;" vertex="1" parent="1">
          <mxGeometry x="400" y="540" width="60" height="30" as="geometry" />
        </mxCell>
        <mxCell id="UYImjuvei5mf2j6ICDsT-67" value="Authentication" style="text;html=1;strokeColor=none;fillColor=none;align=center;verticalAlign=middle;whiteSpace=wrap;rounded=0;" vertex="1" parent="1">
          <mxGeometry x="310" y="140" width="60" height="30" as="geometry" />
        </mxCell>
        <mxCell id="UYImjuvei5mf2j6ICDsT-68" value="Order/Delivery DB" style="shape=cylinder3;whiteSpace=wrap;html=1;boundedLbl=1;backgroundOutline=1;size=15;" vertex="1" parent="1">
          <mxGeometry x="330" y="720" width="60" height="80" as="geometry" />
        </mxCell>
        <mxCell id="UYImjuvei5mf2j6ICDsT-71" value="Update" style="text;html=1;strokeColor=none;fillColor=none;align=center;verticalAlign=middle;whiteSpace=wrap;rounded=0;" vertex="1" parent="1">
          <mxGeometry x="140" y="630" width="60" height="30" as="geometry" />
        </mxCell>
        <mxCell id="UYImjuvei5mf2j6ICDsT-72" value="Update" style="text;html=1;strokeColor=none;fillColor=none;align=center;verticalAlign=middle;whiteSpace=wrap;rounded=0;" vertex="1" parent="1">
          <mxGeometry x="354" y="685" width="60" height="30" as="geometry" />
        </mxCell>
        <mxCell id="UYImjuvei5mf2j6ICDsT-73" style="edgeStyle=orthogonalEdgeStyle;rounded=0;orthogonalLoop=1;jettySize=auto;html=1;entryX=0.5;entryY=0;entryDx=0;entryDy=0;entryPerimeter=0;" edge="1" parent="1" source="UYImjuvei5mf2j6ICDsT-37" target="UYImjuvei5mf2j6ICDsT-68">
          <mxGeometry relative="1" as="geometry" />
        </mxCell>
        <mxCell id="UYImjuvei5mf2j6ICDsT-74" style="edgeStyle=orthogonalEdgeStyle;rounded=0;orthogonalLoop=1;jettySize=auto;html=1;exitX=0;exitY=0.5;exitDx=0;exitDy=0;exitPerimeter=0;entryX=-0.003;entryY=0.289;entryDx=0;entryDy=0;entryPerimeter=0;" edge="1" parent="1" source="UYImjuvei5mf2j6ICDsT-68" target="UYImjuvei5mf2j6ICDsT-7">
          <mxGeometry relative="1" as="geometry" />
        </mxCell>
        <mxCell id="UYImjuvei5mf2j6ICDsT-75" value="" style="endArrow=classic;html=1;rounded=0;entryX=0.75;entryY=0;entryDx=0;entryDy=0;" edge="1" parent="1" target="UYImjuvei5mf2j6ICDsT-32">
          <mxGeometry width="50" height="50" relative="1" as="geometry">
            <mxPoint x="160" y="490" as="sourcePoint" />
            <mxPoint x="450" y="540" as="targetPoint" />
          </mxGeometry>
        </mxCell>
        <mxCell id="UYImjuvei5mf2j6ICDsT-76" style="edgeStyle=orthogonalEdgeStyle;rounded=0;orthogonalLoop=1;jettySize=auto;html=1;exitX=0.25;exitY=0;exitDx=0;exitDy=0;entryX=0.247;entryY=1.005;entryDx=0;entryDy=0;entryPerimeter=0;" edge="1" parent="1" source="UYImjuvei5mf2j6ICDsT-32" target="UYImjuvei5mf2j6ICDsT-16">
          <mxGeometry relative="1" as="geometry" />
        </mxCell>
        <mxCell id="UYImjuvei5mf2j6ICDsT-77" value="Get Info" style="text;html=1;strokeColor=none;fillColor=none;align=center;verticalAlign=middle;whiteSpace=wrap;rounded=0;" vertex="1" parent="1">
          <mxGeometry x="40" y="630" width="60" height="30" as="geometry" />
        </mxCell>
        <mxCell id="UYImjuvei5mf2j6ICDsT-78" value="Get Info" style="text;html=1;strokeColor=none;fillColor=none;align=center;verticalAlign=middle;whiteSpace=wrap;rounded=0;" vertex="1" parent="1">
          <mxGeometry x="200" y="720" width="60" height="30" as="geometry" />
        </mxCell>
        <mxCell id="UYImjuvei5mf2j6ICDsT-79" value="" style="endArrow=classic;html=1;rounded=0;exitX=0.757;exitY=1.071;exitDx=0;exitDy=0;exitPerimeter=0;entryX=0.75;entryY=0;entryDx=0;entryDy=0;" edge="1" parent="1" source="UYImjuvei5mf2j6ICDsT-8" target="UYImjuvei5mf2j6ICDsT-37">
          <mxGeometry width="50" height="50" relative="1" as="geometry">
            <mxPoint x="400" y="590" as="sourcePoint" />
            <mxPoint x="450" y="540" as="targetPoint" />
          </mxGeometry>
        </mxCell>
        <mxCell id="UYImjuvei5mf2j6ICDsT-80" style="edgeStyle=orthogonalEdgeStyle;rounded=0;orthogonalLoop=1;jettySize=auto;html=1;exitX=0.25;exitY=0;exitDx=0;exitDy=0;entryX=0.252;entryY=1.052;entryDx=0;entryDy=0;entryPerimeter=0;" edge="1" parent="1" source="UYImjuvei5mf2j6ICDsT-37" target="UYImjuvei5mf2j6ICDsT-8">
          <mxGeometry relative="1" as="geometry" />
        </mxCell>
        <mxCell id="UYImjuvei5mf2j6ICDsT-81" style="edgeStyle=orthogonalEdgeStyle;rounded=0;orthogonalLoop=1;jettySize=auto;html=1;exitX=0;exitY=0.5;exitDx=0;exitDy=0;exitPerimeter=0;entryX=-0.008;entryY=0.712;entryDx=0;entryDy=0;entryPerimeter=0;" edge="1" parent="1" source="UYImjuvei5mf2j6ICDsT-36" target="UYImjuvei5mf2j6ICDsT-15">
          <mxGeometry relative="1" as="geometry">
            <Array as="points">
              <mxPoint x="20" y="700" />
              <mxPoint x="20" y="440" />
            </Array>
          </mxGeometry>
        </mxCell>
        <mxCell id="UYImjuvei5mf2j6ICDsT-82" value="Get Info" style="text;html=1;strokeColor=none;fillColor=none;align=center;verticalAlign=middle;whiteSpace=wrap;rounded=0;" vertex="1" parent="1">
          <mxGeometry x="-40" y="540" width="60" height="30" as="geometry" />
        </mxCell>
        <mxCell id="UYImjuvei5mf2j6ICDsT-83" value="" style="endArrow=classic;html=1;rounded=0;entryX=0.492;entryY=1.02;entryDx=0;entryDy=0;entryPerimeter=0;" edge="1" parent="1" target="UYImjuvei5mf2j6ICDsT-39">
          <mxGeometry width="50" height="50" relative="1" as="geometry">
            <mxPoint x="239" y="370" as="sourcePoint" />
            <mxPoint x="450" y="340" as="targetPoint" />
          </mxGeometry>
        </mxCell>
        <mxCell id="UYImjuvei5mf2j6ICDsT-85" style="edgeStyle=orthogonalEdgeStyle;rounded=0;orthogonalLoop=1;jettySize=auto;html=1;entryX=0.481;entryY=1.051;entryDx=0;entryDy=0;entryPerimeter=0;" edge="1" parent="1" source="UYImjuvei5mf2j6ICDsT-68" target="UYImjuvei5mf2j6ICDsT-28">
          <mxGeometry relative="1" as="geometry">
            <Array as="points">
              <mxPoint x="560" y="760" />
              <mxPoint x="560" y="510" />
              <mxPoint x="562" y="510" />
            </Array>
          </mxGeometry>
        </mxCell>
        <mxCell id="UYImjuvei5mf2j6ICDsT-86" value="Notify when updated&lt;br&gt;(e.g. new order)" style="text;html=1;strokeColor=none;fillColor=none;align=center;verticalAlign=middle;whiteSpace=wrap;rounded=0;" vertex="1" parent="1">
          <mxGeometry x="560" y="600" width="60" height="30" as="geometry" />
        </mxCell>
        <mxCell id="UYImjuvei5mf2j6ICDsT-87" style="edgeStyle=orthogonalEdgeStyle;rounded=0;orthogonalLoop=1;jettySize=auto;html=1;exitX=0.004;exitY=0.716;exitDx=0;exitDy=0;entryX=1;entryY=0.5;entryDx=0;entryDy=0;exitPerimeter=0;" edge="1" parent="1" source="UYImjuvei5mf2j6ICDsT-28" target="UYImjuvei5mf2j6ICDsT-7">
          <mxGeometry relative="1" as="geometry" />
        </mxCell>
        <mxCell id="UYImjuvei5mf2j6ICDsT-88" value="Update" style="text;html=1;strokeColor=none;fillColor=none;align=center;verticalAlign=middle;whiteSpace=wrap;rounded=0;" vertex="1" parent="1">
          <mxGeometry x="440" y="445" width="60" height="30" as="geometry" />
        </mxCell>
        <mxCell id="UYImjuvei5mf2j6ICDsT-91" value="Pop Up?" style="text;html=1;strokeColor=none;fillColor=none;align=center;verticalAlign=middle;whiteSpace=wrap;rounded=0;" vertex="1" parent="1">
          <mxGeometry x="414" y="290" width="60" height="30" as="geometry" />
        </mxCell>
        <mxCell id="UYImjuvei5mf2j6ICDsT-100" style="edgeStyle=orthogonalEdgeStyle;rounded=0;orthogonalLoop=1;jettySize=auto;html=1;exitX=1;exitY=0.25;exitDx=0;exitDy=0;" edge="1" parent="1" source="UYImjuvei5mf2j6ICDsT-94">
          <mxGeometry relative="1" as="geometry">
            <mxPoint x="718.7143903459823" y="131.86000000000013" as="targetPoint" />
          </mxGeometry>
        </mxCell>
        <mxCell id="UYImjuvei5mf2j6ICDsT-104" style="edgeStyle=orthogonalEdgeStyle;rounded=0;orthogonalLoop=1;jettySize=auto;html=1;exitX=0.5;exitY=0;exitDx=0;exitDy=0;" edge="1" parent="1" source="UYImjuvei5mf2j6ICDsT-94">
          <mxGeometry relative="1" as="geometry">
            <mxPoint x="582.7142857142858" y="59.00285714285722" as="targetPoint" />
          </mxGeometry>
        </mxCell>
        <mxCell id="UYImjuvei5mf2j6ICDsT-94" value="Page Description" style="swimlane;fontStyle=0;childLayout=stackLayout;horizontal=1;startSize=40;fillColor=none;horizontalStack=0;resizeParent=1;resizeParentMax=0;resizeLast=0;collapsible=1;marginBottom=0;whiteSpace=wrap;html=1;" vertex="1" parent="1">
          <mxGeometry x="523" y="115.86" width="120" height="66" as="geometry" />
        </mxCell>
        <mxCell id="UYImjuvei5mf2j6ICDsT-98" style="edgeStyle=orthogonalEdgeStyle;rounded=0;orthogonalLoop=1;jettySize=auto;html=1;" edge="1" parent="UYImjuvei5mf2j6ICDsT-94" source="UYImjuvei5mf2j6ICDsT-95">
          <mxGeometry relative="1" as="geometry">
            <mxPoint x="60" y="134.0000087193082" as="targetPoint" />
          </mxGeometry>
        </mxCell>
        <mxCell id="UYImjuvei5mf2j6ICDsT-95" value="Page Functions" style="text;html=1;align=center;verticalAlign=middle;resizable=0;points=[];autosize=1;strokeColor=none;fillColor=none;" vertex="1" parent="UYImjuvei5mf2j6ICDsT-94">
          <mxGeometry y="40" width="120" height="26" as="geometry" />
        </mxCell>
        <mxCell id="UYImjuvei5mf2j6ICDsT-96" value="Database" style="shape=cylinder3;whiteSpace=wrap;html=1;boundedLbl=1;backgroundOutline=1;size=15;" vertex="1" parent="1">
          <mxGeometry x="729" y="108.86" width="60" height="80" as="geometry" />
        </mxCell>
        <mxCell id="UYImjuvei5mf2j6ICDsT-99" value="How Pages Link" style="text;html=1;strokeColor=none;fillColor=none;align=center;verticalAlign=middle;whiteSpace=wrap;rounded=0;" vertex="1" parent="1">
          <mxGeometry x="578" y="198.86" width="60" height="30" as="geometry" />
        </mxCell>
        <mxCell id="UYImjuvei5mf2j6ICDsT-101" value="Request Info" style="text;html=1;strokeColor=none;fillColor=none;align=center;verticalAlign=middle;whiteSpace=wrap;rounded=0;" vertex="1" parent="1">
          <mxGeometry x="649" y="98.86" width="60" height="30" as="geometry" />
        </mxCell>
        <mxCell id="UYImjuvei5mf2j6ICDsT-102" style="edgeStyle=orthogonalEdgeStyle;rounded=0;orthogonalLoop=1;jettySize=auto;html=1;exitX=0;exitY=0;exitDx=0;exitDy=52.5;exitPerimeter=0;entryX=1.012;entryY=0.187;entryDx=0;entryDy=0;entryPerimeter=0;" edge="1" parent="1" source="UYImjuvei5mf2j6ICDsT-96" target="UYImjuvei5mf2j6ICDsT-95">
          <mxGeometry relative="1" as="geometry" />
        </mxCell>
        <mxCell id="UYImjuvei5mf2j6ICDsT-103" value="Return Info" style="text;html=1;strokeColor=none;fillColor=none;align=center;verticalAlign=middle;whiteSpace=wrap;rounded=0;" vertex="1" parent="1">
          <mxGeometry x="652" y="161.86" width="60" height="30" as="geometry" />
        </mxCell>
        <mxCell id="UYImjuvei5mf2j6ICDsT-105" value="Return to previous page" style="text;html=1;strokeColor=none;fillColor=none;align=center;verticalAlign=middle;whiteSpace=wrap;rounded=0;" vertex="1" parent="1">
          <mxGeometry x="523" y="73.86" width="60" height="30" as="geometry" />
        </mxCell>
        <mxCell id="UYImjuvei5mf2j6ICDsT-106" value="" style="rounded=0;whiteSpace=wrap;html=1;fillColor=none;" vertex="1" parent="1">
          <mxGeometry x="490" y="48" width="315" height="210" as="geometry" />
        </mxCell>
        <mxCell id="UYImjuvei5mf2j6ICDsT-107" value="Key" style="text;html=1;strokeColor=none;fillColor=none;align=center;verticalAlign=middle;whiteSpace=wrap;rounded=0;fontStyle=1" vertex="1" parent="1">
          <mxGeometry x="472" y="23" width="60" height="30" as="geometry" />
        </mxCell>
      </root>
    </mxGraphModel>
  </diagram>
</mxfile>
